<?xml version="1.0" standalone="no"?>
<!DOCTYPE svg PUBLIC "-//W3C//DTD SVG 20010904//EN"
 "http://www.w3.org/TR/2001/REC-SVG-20010904/DTD/svg10.dtd">
<svg version="1.0" xmlns="http://www.w3.org/2000/svg"
 width="208.000000pt" height="184.000000pt" viewBox="0 0 208.000000 184.000000"
 preserveAspectRatio="xMidYMid meet">

<g transform="translate(0.000000,184.000000) scale(0.100000,-0.100000)"
fill="#000000" stroke="none">
<path d="M685 1788 c3 -12 16 -70 29 -128 l23 -105 -66 -5 -66 -5 -11 -80 c-7
-44 -15 -110 -19 -146 l-7 -66 49 -8 c26 -4 57 -9 68 -11 110 -18 511 -62 516
-56 11 14 32 138 33 197 l1 59 -120 27 c-66 15 -146 32 -177 39 -32 6 -58 16
-58 21 0 12 -177 276 -191 285 -6 3 -8 -4 -4 -18z m178 -375 c19 -9 27 -21 27
-39 0 -24 -2 -25 -47 -18 -62 9 -60 7 -55 49 5 39 13 40 75 8z m87 -53 c0 -11
-6 -20 -14 -20 -9 0 -12 7 -9 20 3 11 9 20 14 20 5 0 9 -9 9 -20z m232 -25
c-4 -36 -7 -39 -27 -32 -9 4 -15 19 -15 37 0 27 3 31 23 28 18 -2 21 -8 19
-33z m-85 -12 c-3 -10 -5 -4 -5 12 0 17 2 24 5 18 2 -7 2 -21 0 -30z m-87 17
c0 -5 -7 -10 -15 -10 -8 0 -15 5 -15 10 0 6 7 10 15 10 8 0 15 -4 15 -10z m19
-76 c10 -9 -45 -3 -59 6 -11 7 -5 8 20 4 19 -4 37 -8 39 -10z"/>
<path d="M89 1689 c-19 -19 -21 -29 -16 -76 5 -49 4 -53 -8 -37 -8 11 -15 27
-15 37 0 24 -20 11 -20 -13 0 -35 22 -67 60 -89 45 -25 71 -26 110 -6 38 19
40 38 4 24 -35 -13 -70 10 -90 56 -18 43 -18 63 0 98 18 32 4 35 -25 6z"/>
<path d="M236 1676 c28 -28 34 -42 34 -76 0 -26 -8 -53 -21 -71 -24 -34 -13
-38 24 -9 66 52 30 190 -49 190 -20 0 -19 -3 12 -34z"/>
<path d="M255 1495 c-5 -2 -29 -9 -52 -15 -26 -6 -43 -17 -43 -25 0 -8 14 -63
31 -122 50 -173 105 -262 201 -325 50 -32 121 -64 164 -72 67 -14 65 -11 125
-222 l56 -199 61 3 c65 3 79 -6 62 -38 -22 -40 -31 -128 -21 -186 12 -65 51
-147 89 -188 33 -35 117 -76 157 -76 101 0 222 142 256 300 18 86 -20 194
-100 283 l-35 39 24 19 c14 11 44 24 67 30 23 6 54 22 68 35 25 23 34 54 15
54 -5 0 -10 -6 -10 -14 0 -23 -45 -53 -91 -60 -60 -10 -74 -20 -119 -86 -47
-70 -89 -111 -109 -108 -9 2 -14 23 -17 68 -7 126 -5 120 -25 110 -14 -8 -21
-3 -39 27 -30 51 -35 96 -12 116 10 9 47 24 82 33 37 9 86 31 113 50 53 38 62
40 74 19 6 -9 13 -11 23 -5 12 7 12 11 -3 28 -24 26 -21 42 14 78 34 36 34 64
-1 64 -33 0 -60 -17 -122 -77 l-56 -56 -11 39 c-6 22 -11 45 -11 51 0 7 -10
35 -22 63 -21 48 -23 50 -62 50 -23 0 -52 3 -65 7 -23 6 -24 4 -18 -25 6 -32
6 -32 -36 -32 -61 0 -260 -40 -272 -55 -9 -10 -18 -10 -47 0 -100 34 -184 156
-230 338 -21 81 -28 91 -53 82z m512 -430 l28 -25 -29 14 c-21 11 -36 12 -54
5 -26 -10 -26 -10 -7 10 23 27 28 26 62 -4z m61 -212 c-9 -10 -23 -31 -31 -48
-14 -26 -16 -27 -17 -8 0 22 48 88 58 78 3 -2 -2 -13 -10 -22z m340 -421 c59
-59 76 -150 47 -248 -19 -65 -51 -95 -109 -101 -55 -7 -60 8 -11 26 48 17 65
54 65 140 0 42 4 71 11 73 13 4 -11 67 -41 105 -43 55 -15 58 38 5z m-239
-207 c30 -61 46 -74 91 -75 l35 -1 -24 -19 c-50 -42 -94 -18 -137 73 -27 59
-33 165 -12 214 11 26 13 21 18 -57 4 -62 12 -99 29 -135z m86 45 c0 -36 -29
-33 -33 3 -3 23 0 28 15 25 12 -2 18 -12 18 -28z"/>
<path d="M1968 1298 c17 -8 26 -8 34 0 9 9 4 12 -22 11 -33 0 -34 -1 -12 -11z"/>
<path d="M1777 1293 c-4 -3 -7 -11 -7 -17 0 -6 5 -5 12 2 6 6 9 14 7 17 -3 3
-9 2 -12 -2z"/>
<path d="M1845 1240 c-40 -6 -40 -6 -12 -14 21 -6 33 -4 45 8 9 9 14 15 12 15
-3 -1 -23 -5 -45 -9z"/>
<path d="M1561 1214 c-24 -30 -28 -84 -7 -84 8 0 14 11 14 25 0 28 27 65 48
65 7 0 16 5 19 10 4 6 -6 10 -24 10 -20 0 -36 -8 -50 -26z"/>
<path d="M1636 1166 l4 -41 -198 -131 c-181 -121 -197 -134 -195 -159 2 -32
29 -65 52 -64 11 0 10 3 -5 9 -21 8 -40 39 -26 41 4 1 23 3 42 5 94 10 154 53
276 195 17 20 43 39 58 43 60 15 98 95 61 126 -13 10 -15 9 -16 -11 0 -24 0
-24 -11 -2 -6 12 -18 23 -28 26 -15 4 -17 -2 -14 -37z m-1 -66 c-3 -5 -11 -10
-16 -10 -6 0 -7 5 -4 10 3 6 11 10 16 10 6 0 7 -4 4 -10z"/>
<path d="M1080 842 c0 -16 34 -72 43 -72 5 0 -2 17 -14 38 -28 47 -29 48 -29
34z"/>
</g>
</svg>
